<?xml version="1.0" standalone="no"?>
<!DOCTYPE svg PUBLIC "-//W3C//DTD SVG 20010904//EN"
 "http://www.w3.org/TR/2001/REC-SVG-20010904/DTD/svg10.dtd">
<svg version="1.0" xmlns="http://www.w3.org/2000/svg"
 width="700.000000pt" height="700.000000pt" viewBox="0 0 700.000000 700.000000"
 preserveAspectRatio="xMidYMid meet">
<metadata>
Created by potrace 1.11, written by Peter Selinger 2001-2013
</metadata>
<g transform="translate(0.000000,700.000000) scale(0.100000,-0.100000)"
fill="#ff0000" stroke="none">
<path d="M1957 6354 c-1 -1 -45 -4 -97 -7 -437 -28 -865 -248 -1130 -582 -172
-215 -303 -520 -335 -773 -27 -220 -21 -527 15 -767 5 -33 12 -78 15 -100 5
-39 10 -64 35 -170 54 -231 226 -612 342 -760 5 -5 31 -41 59 -80 139 -190
344 -410 619 -663 204 -188 286 -261 555 -492 60 -52 125 -109 145 -126 19
-17 109 -96 200 -175 91 -79 179 -156 195 -171 17 -14 41 -36 55 -48 79 -69
161 -141 205 -181 68 -62 126 -114 151 -136 12 -10 68 -61 124 -113 138 -127
148 -137 273 -254 60 -55 112 -101 117 -101 6 0 130 111 238 214 20 20 84 79
141 131 58 52 112 102 121 110 55 52 321 288 465 414 94 82 197 172 230 201
33 29 96 83 140 121 44 38 85 73 91 79 6 5 39 35 74 65 633 546 932 842 1139
1125 28 39 54 75 59 80 104 133 284 518 327 700 3 11 11 47 20 80 8 33 18 80
21 105 3 25 8 48 10 51 1 3 6 28 9 55 4 27 8 60 10 74 3 14 7 56 10 95 3 38 8
91 10 117 7 64 7 385 1 428 -2 19 -7 56 -11 81 -10 76 -15 100 -41 199 -121
453 -425 817 -849 1019 -76 36 -278 105 -335 115 -19 3 -48 8 -65 11 -66 13
-83 15 -150 21 -494 47 -977 -133 -1349 -502 -103 -102 -255 -295 -298 -377
l-14 -28 -30 43 c-93 138 -140 198 -224 292 -296 328 -689 532 -1100 572 -54
5 -189 11 -193 8z"/>
</g>
</svg>
